# xmcd CD database file
# Copyright (C) 1993-1998 Ti Kan
#
# Track frame offsets:
#	150
#	10472
#	19925
#	35997
#	47260
#	61530
#	73397
#	83897
#	93885
#	105297
#
# Disc length: 1590 seconds
#
# Revision: 2
# Processed by: cddbd v1.4PL0 Copyright (c) Steve Scherf et al.
# Submitted via: Gronk 1.4
#
DISCID=7706340a
DTITLE=George Strait - Greatest Hits Collection
DYEAR=1900
DGENRE=country
TTITLE0=Rhythm Of The road
TTITLE1=You Still Get To Me
TTITLE2=Baby Blue
TTITLE3=I Can't See Texas From Here
TTITLE4=I'm Never Gonna Let You Go
TTITLE5=In Too Deep
TTITLE6=Too Much Of Too Little
TTITLE7=Last Time The First Time
TTITLE8=She Lays It All On the Line
TTITLE9=Love Without End, Amen
EXTD=
EXTT0=
EXTT1=
EXTT2=
EXTT3=
EXTT4=
EXTT5=
EXTT6=
EXTT7=
EXTT8=
EXTT9=
PLAYORDER=
